<svg xmlns="http://www.w3.org/2000/svg" viewBox="0 0 180.533 50"><g fill="#fcfcfc"><path d="M61.204 7.877h2.899l5.995 16.713h-2.921l-1.461-4.424h-6.213l-1.461 4.424H55.23l5.974-16.713zm-.959 10.065h4.753l-2.333-7.186H62.6l-2.355 7.186zM81.85 24.59h-2.354v-1.638h-.044c-.654 1.381-2.071 1.966-3.488 1.966-3.554 0-5.276-2.832-5.276-6.46 0-4.377 2.42-6.297 4.883-6.297 1.417 0 2.987.562 3.75 1.896h.044v-6.18h2.485V24.59zm-5.559-1.779c2.224 0 3.161-2.177 3.161-4.284 0-2.668-1.199-4.26-3.118-4.26-2.333 0-3.161 2.224-3.161 4.401 0 2.083.959 4.143 3.118 4.143zM83.442 12.488h2.703l2.856 9.293h.044l2.747-9.293h2.573L90.331 24.59H87.54l-4.098-12.102zM105.309 21.898c0 .655.131.913.589.913.153 0 .349 0 .61-.047v1.849c-.37.14-1.155.304-1.57.304-1.003 0-1.722-.375-1.919-1.475-.981 1.03-2.573 1.475-3.902 1.475-2.028 0-3.859-1.17-3.859-3.534 0-3.02 2.245-3.511 4.338-3.769 1.788-.351 3.379-.14 3.379-1.709 0-1.381-1.33-1.638-2.333-1.638-1.395 0-2.376.609-2.485 1.919h-2.485c.174-3.113 2.638-4.026 5.123-4.026 2.202 0 4.513.96 4.513 3.511v6.227zm-2.486-3.371c-.763.538-1.962.515-3.052.726-1.068.187-2.027.609-2.027 2.013 0 1.194 1.417 1.545 2.289 1.545 1.09 0 2.791-.609 2.791-2.294v-1.99zM107.991 12.488h2.354v1.779l.044.047c.741-1.334 2.028-2.153 3.51-2.153 2.442 0 3.99 1.404 3.99 4.12v8.31h-2.485v-7.607c-.044-1.896-.741-2.715-2.202-2.715-1.657 0-2.725 1.404-2.725 3.183v7.139h-2.485V12.488zM128.113 16.538c-.196-1.475-1.199-2.27-2.573-2.27-1.286 0-3.096.726-3.096 4.401 0 2.013.828 4.143 2.987 4.143 1.439 0 2.442-1.03 2.682-2.762h2.485c-.458 3.137-2.267 4.869-5.167 4.869-3.532 0-5.472-2.692-5.472-6.25 0-3.652 1.853-6.507 5.559-6.507 2.616 0 4.84 1.404 5.08 4.377l-2.485-.001zM134.567 19.229c0 1.896.959 3.581 3.03 3.581 1.439 0 2.311-.679 2.747-2.013h2.354c-.545 2.645-2.638 4.12-5.102 4.12-3.532 0-5.516-2.645-5.516-6.367 0-3.441 2.093-6.39 5.45-6.39 3.553 0 5.734 3.441 5.319 7.069h-8.282zm5.799-1.755c-.087-1.685-1.156-3.207-2.834-3.207-1.722 0-2.9 1.404-2.965 3.207h5.799zM155.366 24.59h-2.354v-1.638h-.044c-.654 1.381-2.071 1.966-3.488 1.966-3.554 0-5.276-2.832-5.276-6.46 0-4.377 2.42-6.297 4.884-6.297 1.417 0 2.987.562 3.75 1.896h.044v-6.18h2.485V24.59zm-5.56-1.779c2.224 0 3.161-2.177 3.161-4.284 0-2.668-1.199-4.26-3.118-4.26-2.333 0-3.161 2.224-3.161 4.401.001 2.083.96 4.143 3.118 4.143z"/></g><g fill="#fcfcfc"><path d="M55.23 27.211h3.423v16.713H55.23V27.211zM61.662 27.211h3.401l6.497 11.212h.044V27.211h3.205v16.713h-3.423L64.91 32.735h-.044v11.189h-3.205V27.211zM80.15 38.376c0 2.224 1.613 3.09 3.445 3.09 1.199 0 3.03-.375 3.03-2.083 0-1.802-2.333-2.107-4.622-2.762-2.311-.655-4.644-1.615-4.644-4.752 0-3.417 3.009-5.056 5.821-5.056 3.248 0 6.235 1.521 6.235 5.384h-3.314c-.109-2.013-1.439-2.528-3.074-2.528-1.09 0-2.354.492-2.354 1.896 0 1.287.741 1.451 4.644 2.528 1.134.304 4.622 1.077 4.622 4.869 0 3.066-2.245 5.36-6.475 5.36-3.445 0-6.671-1.826-6.627-5.945l3.313-.001zM95.411 30.301h-4.665v-3.09H103.5v3.09h-4.665v13.623h-3.423V30.301zM107.925 27.211h3.51l5.821 16.713h-3.554l-1.177-3.722h-5.821l-1.221 3.722h-3.466l5.908-16.713zm-.327 10.252h4.033l-1.962-6.133h-.044l-2.027 6.133zM118.608 27.211h3.423v13.623h7.587v3.09h-11.01V27.211zM131.537 27.211h3.423v13.623h7.587v3.09h-11.01V27.211zM144.465 27.211h11.642v3.09h-8.219v3.581h7.543v2.856h-7.543v4.096h8.393v3.09h-11.816V27.211zM158.592 27.211h8.393c2.791 0 4.556 2.083 4.556 4.611 0 1.966-.741 3.441-2.464 4.19v.047c1.679.468 2.158 2.224 2.267 3.909.065 1.053.044 3.02.654 3.956h-3.423c-.414-1.053-.371-2.668-.545-4.003-.24-1.756-.872-2.528-2.594-2.528h-3.423v6.531h-3.423V27.211zm3.423 7.56h3.75c1.526 0 2.354-.702 2.354-2.387 0-1.615-.828-2.317-2.354-2.317h-3.75v4.704z"/></g><path d="M32.862 10.695c-.008.044-.009.088-.02.132l-1.487 5.721a1.957 1.957 0 0 1-2.383 1.403l-.276-.071a1.953 1.953 0 0 1-1.142-.816 1.23 1.23 0 0 0-.71-.523 1.083 1.083 0 0 0-.271-.035c-.627 0-1.219.525-1.407 1.249-.111.429-.068.862.122 1.22.172.324.435.54.761.624.11.029.217.043.317.043a.97.97 0 0 0 .505-.141 1.967 1.967 0 0 1 1.482-.207l.249.065a1.961 1.961 0 0 1 1.402 2.387l-.241.928a5.758 5.758 0 1 1-8.477 5.074c0-.018.004-.034.004-.052l-.943-.245a1.961 1.961 0 0 1-1.403-2.384l.072-.28a1.95 1.95 0 0 1 .821-1.146c.272-.179.462-.429.533-.703.106-.406-.041-.749-.183-.965a1.731 1.731 0 0 0-1.024-.711 1.893 1.893 0 0 0-.469-.061c-.27 0-.533.063-.76.183-.326.172-.542.434-.627.758-.082.317-.054.578.088.822.263.451.336.976.205 1.479l-.066.254a1.958 1.958 0 0 1-2.387 1.402l-5.761-1.498c-.035-.009-.065-.026-.099-.037a18.098 18.098 0 0 0-.285 3.186c0 9.958 8.077 18.03 18.04 18.03s18.04-8.072 18.04-18.03c.001-7.92-5.115-14.633-12.22-17.055z" fill="#fcfcfc"/><path d="M29.661 16.108l1.487-5.721a.208.208 0 0 0-.149-.253L14.278 5.786a.208.208 0 0 0-.253.149L9.678 22.656a.208.208 0 0 0 .149.253l5.761 1.498a.208.208 0 0 0 .253-.149l.066-.254a.206.206 0 0 0-.023-.157c-.376-.644-.469-1.381-.27-2.145.208-.802.743-1.464 1.504-1.866a3.45 3.45 0 0 1 2.485-.268 3.479 3.479 0 0 1 2.047 1.445c.475.724.622 1.564.413 2.365-.181.697-.629 1.306-1.265 1.724a.202.202 0 0 0-.087.121l-.072.28a.208.208 0 0 0 .149.253l5.762 1.498a.208.208 0 0 0 .253-.149l1.508-5.802a.208.208 0 0 0-.149-.253l-.249-.065a.206.206 0 0 0-.157.023c-.65.381-1.389.478-2.147.281a2.939 2.939 0 0 1-1.867-1.498 3.433 3.433 0 0 1-.27-2.481c.464-1.786 2.175-2.893 3.812-2.467a2.975 2.975 0 0 1 1.728 1.251.207.207 0 0 0 .12.087l.276.071a.202.202 0 0 0 .253-.144z" fill="#fcfcfc"/></svg>